<svg xmlns:dc="http://purl.org/dc/elements/1.1/" xmlns:cc="http://creativecommons.org/ns#" xmlns:rdf="http://www.w3.org/1999/02/22-rdf-syntax-ns#" xmlns:svg="http://www.w3.org/2000/svg" xmlns="http://www.w3.org/2000/svg" viewBox="0 0 280 280" fill="none"><metadata><rdf:RDF><cc:Work><dc:format>image/svg+xml</dc:format><dc:type rdf:resource="http://purl.org/dc/dcmitype/StillImage"/><dc:title>Avataaars</dc:title><dc:creator><cc:Agent><dc:title>Pablo Stanley</dc:title></cc:Agent></dc:creator><dc:source>https://avataaars.com/</dc:source><cc:license rdf:resource="https://avataaars.com/"/><dc:contributor><cc:Agent><dc:title>Florian Körner</dc:title></cc:Agent></dc:contributor></cc:Work></rdf:RDF></metadata><mask id="avatarsRadiusMask"><rect width="280" height="280" rx="0" ry="0" x="0" y="0" fill="#fff"/></mask><g mask="url(#avatarsRadiusMask)"><g transform="translate(40, 36)"><path d="M100 0C69.072 0 44 25.072 44 56v6.166c-5.675.952-10 5.888-10 11.834v14c0 6.052 4.48 11.058 10.305 11.881 2.067 19.806 14.458 36.541 31.695 44.73V163h-4c-39.764 0-72 32.236-72 72v9h200v-9c0-39.764-32.236-72-72-72h-4v-18.389c17.237-8.189 29.628-24.924 31.695-44.73C161.52 99.058 166 94.052 166 88V74c0-5.946-4.325-10.882-10-11.834V56c0-30.928-25.072-56-56-56z" fill="#FD9841"/><path d="M76 144.611v8A55.79 55.79 0 00100 158a55.789 55.789 0 0024-5.389v-8A55.789 55.789 0 01100 150a55.79 55.79 0 01-24-5.389z" fill="#000" fill-opacity=".1"/></g><g transform="translate(8, 170)"><path d="M132.5 54c18.502 0 33.5-9.626 33.5-21.5a14.08 14.08 0 00-.376-3.232C202.76 32.138 232 63.18 232 101.052V110H32v-8.948c0-38.217 29.775-69.48 67.393-71.855A14.108 14.108 0 0099 32.5C99 44.374 113.998 54 132.5 54z" fill="#FF5C5C"/><g transform="translate(77, 58)"><path fill-rule="evenodd" clip-rule="evenodd" d="M65.282 19.929c-.298 2.777-5.693 4.274-7.672 2.448-.911-.842-.927-2.574-1.129-3.702-.38-2.133-.655-4.258-.75-6.423-.058-1.325-.406-2.385 1.044-2.582.883-.12 1.793.468 2.515.933 2.447 1.573 6.33 6.138 5.992 9.326zm-12.4-5.853c.284 2.825 1.32 7.739-.936 10.105-2.016 2.115-6.16.018-6.783-2.473-.773-3.09 2.275-6.78 4.145-8.87.574-.641 1.844-2.412 2.836-1.82.382.228.693 2.612.737 3.058zm1.44 11.03c.646-1.523 6.912 3.019 3.953 5.18-.483.352-4.16 1.465-4.865.941-1.485-1.104.43-4.964.911-6.12zm19.003-7.58c-.443-15.475-20.26-19.84-30.85-11.022-4.048 3.372-6.362 7.5-6.468 12.779-.09 4.471.619 8.689 4.034 11.764 1.481 1.333 2.46 2.149 3.245 3.97.824 1.906 1.2 4.335 2.742 5.832.85.826 2.09 1.493 3.266.96 2.162-.979 1.47-3.977 2.125-5.648 2.037 4.968 7.211 6.553 8.15.249 1.031 1.819 3.726 4.2 5.7 2.21.812-.82.934-2.15 1.072-3.227.245-1.912-.18-2.664 1.355-3.975 4.039-3.45 5.773-8.672 5.63-13.891z" fill="#fff"/></g></g><g transform="translate(86, 134)"><path d="M40 16c0 5.372 6.158 9 14 9s14-3.628 14-9c0-1.105-.95-2-2-2-1.293 0-1.87.905-2 2-1.242 2.938-4.317 4.716-10 5-5.683-.284-8.758-2.062-10-5-.13-1.095-.707-2-2-2-1.05 0-2 .895-2 2z" fill="#000" fill-opacity=".6"/></g><g transform="translate(112, 122)"><path fill-rule="evenodd" clip-rule="evenodd" d="M16 8c0 4.418 5.373 8 12 8s12-3.582 12-8" fill="#000" fill-opacity=".16"/></g><g transform="translate(84, 90)"><path d="M36 22a6 6 0 11-12 0 6 6 0 0112 0z" fill="#000" fill-opacity=".6"/><path fill-rule="evenodd" clip-rule="evenodd" d="M70.61 24.955c1.576-3.918 5.54-6.85 10.36-7.188 4.805-.335 9.124 1.999 11.24 5.637.628 1.081-.091 2.052-.928 1.428-2.592-1.93-6.156-3-10.008-2.731-3.731.26-7.02 1.729-9.312 3.887-.838.789-1.814.113-1.353-1.033z" fill="#000" fill-opacity=".6"/></g><g transform="translate(84, 82)"><path fill-rule="evenodd" clip-rule="evenodd" d="M38.66 11.09c-4.998.362-9.923.086-14.918-.122-3.83-.158-7.717-.681-11.374 1.012-.7.324-4.53 2.28-4.44 3.349.07.855 3.935 2.191 4.63 2.436 3.67 1.29 7.181.895 10.954.67 4.628-.278 9.236-.074 13.861-.214 3.116-.093 7.917-.62 9.457-4.398.464-1.137.105-3.413-.36-4.657-.185-.496-.72-.683-1.125-.397-1.45 1.023-4.261 2.146-6.685 2.321zm34.68 0c4.998.362 9.923.086 14.918-.122 3.83-.158 7.717-.681 11.374 1.012.7.324 4.53 2.28 4.441 3.349-.071.855-3.936 2.191-4.632 2.436-3.668 1.29-7.18.895-10.954.67-4.627-.278-9.235-.074-13.86-.214-3.116-.093-7.917-.62-9.457-4.398-.464-1.137-.105-3.413.36-4.657.185-.496.72-.683 1.125-.397 1.45 1.023 4.261 2.146 6.685 2.321z" fill="#000" fill-opacity=".6"/></g><g transform="translate(7, 0)"><path fill-rule="evenodd" clip-rule="evenodd" d="M167.309 35.006c-20.188-11.7-40.18-9.784-55.272-5.976-15.092 3.808-24.02 14.621-31.68 30.618-3.761 7.855-5.991 17.143-6.334 25.833-.135 3.412.325 6.934 1.245 10.22.337 1.205 2.155 5.386 2.654 2.008.166-1.125-.442-2.676-.5-3.871-.078-1.569.005-3.157.112-4.723.2-2.928.722-5.8 1.65-8.59 1.328-3.988 3.017-8.312 5.603-11.677 6.401-8.328 17.482-8.802 26.279-13.384-.763 1.405-3.706 3.68-2.687 5.263.705 1.094 3.37.762 4.643.727 3.349-.092 6.713-.674 10.021-1.147 5.213-.745 10.098-2.255 15.004-4.089 4.016-1.502 8.603-2.892 11.622-6.078 4.871 5.048 11.141 9.794 17.401 13.003 5.618 2.88 14.679 4.318 18.113 10.158 4.065 6.914 2.195 15.406 3.436 22.9.472 2.85 1.545 2.786 2.132.237.997-4.33 1.468-8.828 1.151-13.279-.718-10.048-4.405-36.453-24.593-48.153z" fill="#724133"/></g></g></svg>